# xmcd
#
# Track frame offsets:
#	150
#	11044
#	22934
#	33952
#	46858
#	57007
#	69916
#	81526
#	91458
#	103846
#	113901
#	126222
#	136237
#	149322
#	160876
#	172151
#	182611
#	193661
#	204236
#	214574
#	227895
#	239140
#	250649
#	262819
#	275127
#	284108
#
# Disc length: 3965 seconds
#
# Revision: 1
# Processed by: cddbd v1.5.2PL0 Copyright (c) Steve Scherf et al.
# Submitted via: EasyCDDAExtractor 8.2.3.1
#
DISCID=7d0f7b1a
DTITLE=Eddy Arnold - I Really Don't Want To Know [26 Greatest Hits]
DYEAR=195
DGENRE=Country
TTITLE0=Cuddle Buggin' Baby
TTITLE1=Enclosed One Broken Heart
TTITLE2=The Lovebug Itch
TTITLE3=Prison Without Walls
TTITLE4=There's Been A Change In Me
TTITLE5=May The Good Lord Bless And Keep You
TTITLE6=Kentucky Waltz
TTITLE7=I Wanna Play House With You
TTITLE8=Something Old Something New Something Borrowed Something Blue
TTITLE9=Somebody's Been Beating My Time
TTITLE10=Heart Stings
TTITLE11=Bundle Of Southern Sunshine
TTITLE12=Call Her Your Sweetheart
TTITLE13=Easy On The Eyes
TTITLE14=A Full Time Job
TTITLE15=Older And Bolder
TTITLE16=I'd Trade All Of My Tomorrows (For Just One Yesterday)
TTITLE17=Eddy's Song
TTITLE18=Free Home Demonstration
TTITLE19=How's The World Treating You
TTITLE20=Mama,Come Get Your Baby Boy
TTITLE21=I Really Don't Want To Know
TTITLE22=My Everything
TTITLE23=This Is The Thanks I Get (For Loving You)
TTITLE24=Hen Cat Baby
TTITLE25=Christmas Can't Be Far Away
EXTD=
EXTT0=
EXTT1=
EXTT2=
EXTT3=
EXTT4=
EXTT5=
EXTT6=
EXTT7=
EXTT8=
EXTT9=
EXTT10=
EXTT11=
EXTT12=
EXTT13=
EXTT14=
EXTT15=
EXTT16=
EXTT17=
EXTT18=
EXTT19=
EXTT20=
EXTT21=
EXTT22=
EXTT23=
EXTT24=
EXTT25=
PLAYORDER=
